<svg id="Capa_1" enable-background="new 0 0 512.062 512.062" height="512" viewBox="0 0 512.062 512.062" width="512" xmlns="http://www.w3.org/2000/svg"><g><g><path d="m207.372 242.283c-18.173 0-32.958 14.785-32.958 32.958s14.785 32.958 32.958 32.958 32.958-14.785 32.958-32.958c-.001-18.173-14.785-32.958-32.958-32.958zm0 50.928c-9.909 0-17.97-8.061-17.97-17.97 0-9.908 8.061-17.969 17.97-17.969 9.908 0 17.969 8.061 17.969 17.969 0 9.909-8.061 17.97-17.969 17.97z"/><path d="m304.686 242.283c-18.173 0-32.958 14.785-32.958 32.958s14.785 32.958 32.958 32.958 32.958-14.785 32.958-32.958-14.785-32.958-32.958-32.958zm0 50.928c-9.908 0-17.969-8.061-17.969-17.97 0-9.908 8.061-17.969 17.969-17.969 9.909 0 17.97 8.061 17.97 17.969 0 9.909-8.061 17.97-17.97 17.97z"/><path d="m419.704 237.211c-7.631-28.527-23.668-52.888-47.667-72.406-12.461-10.134-18.95-26.385-16.935-42.413 3.275-26.057 8.171-55.589 10.314-68.161h5.75c14.951 0 27.115-12.164 27.115-27.115.001-14.952-12.163-27.116-27.115-27.116h-150.112c-4.139 0-7.494 3.355-7.494 7.494s3.355 7.494 7.494 7.494h150.112c6.687 0 12.127 5.44 12.127 12.127s-5.44 12.127-12.127 12.127h-230.275c-6.687 0-12.127-5.44-12.127-12.127s5.44-12.127 12.127-12.127h45.454c4.139 0 7.494-3.355 7.494-7.494s-3.355-7.494-7.494-7.494h-45.454c-14.951 0-27.115 12.164-27.115 27.116 0 14.951 12.164 27.115 27.115 27.115h5.75c2.143 12.571 7.039 42.104 10.314 68.161 2.015 16.028-4.475 32.279-16.935 42.413-11.154 9.072-21.098 19.649-29.143 31.581-17.877 26.515-24.796 57.667-23.589 89.433.446 11.739 1.954 23.428 4.262 34.942 9.634 48.055 36.077 103.66 72.548 152.556.027.037.056.074.084.111.069.089 7.018 9.054 13.968 17.903 4.093 5.211 7.388 9.368 9.796 12.356 5.451 6.764 6.749 8.374 10.587 8.374h114.997c3.833 0 5.132-1.611 10.582-8.374 2.408-2.988 5.704-7.145 9.796-12.356 6.949-8.849 13.898-17.813 13.968-17.903.028-.037.057-.074.084-.111 36.471-48.897 62.914-104.501 72.548-152.557 6.124-30.549 5.854-58.659-.804-83.549zm-9.835 45.313c-2.493 1.268-5.245 1.928-8.107 1.928-9.91 0-17.973-8.063-17.973-17.973s8.063-17.973 17.973-17.973c1.858 0 3.655.272 5.374.812 2.086 10.456 3.003 21.593 2.733 33.206zm-59.656-228.293c-1.318 7.795-3.337 20.026-5.404 33.644-25.692 2.869-53.061 3.923-88.674 3.416-.071-.001-.142-.001-.214 0-35.615.506-62.985-.547-88.673-3.416-2.067-13.618-4.087-25.85-5.405-33.644zm-7.656 48.964c-.013.09-2.358 16.505-2.661 20.809-.066.943-.114 1.884-.138 2.823-28.744 2.808-56.877 4.231-83.729 4.231-26.853 0-54.986-1.423-83.729-4.231-.024-.938-.071-1.879-.138-2.822-.181-2.573-.528-5.063-.862-7.62-.402-3.073-1.793-13.144-1.8-13.191 25.177 2.619 52.108 3.57 86.529 3.085 34.414.486 61.348-.465 86.528-3.084zm-193.079 73.238c11.07-9.003 18.468-21.232 21.411-34.702 29.207 2.852 57.82 4.315 85.14 4.315s55.932-1.463 85.14-4.315c2.944 13.47 10.342 25.699 21.412 34.702 6.323 5.142 12.011 10.63 17.072 16.456-82.104 14.849-165.163 14.855-247.263.018 5.064-5.833 10.758-11.327 17.088-16.474zm-44.564 72.899c1.733-.544 3.553-.826 5.382-.826 9.91 0 17.973 8.063 17.973 17.973s-8.063 17.973-17.973 17.973c-2.868 0-5.624-.661-8.115-1.931-.264-11.61.653-22.742 2.733-33.189zm300.628 69.783c-.543 2.618-1.114 5.18-1.738 7.767-.11.457-.229.917-.342 1.375-3.763.969-7.648 1.46-11.595 1.46-14.076 0-27.237-6.306-36.109-17.301-1.616-2.002-4.148-3.037-6.702-2.737-2.556.299-4.779 1.888-5.89 4.209-2.537 5.302-6.018 10.025-10.346 14.037-3.035 2.814-3.214 7.556-.401 10.591s7.555 3.214 10.591.401c3.122-2.894 5.909-6.069 8.344-9.496 11.122 9.811 25.418 15.285 40.512 15.285 2.389 0 4.762-.141 7.112-.413-12.24 39.218-34.404 81.669-62.992 120.009-8.707 11.232-21.072 27.02-25.81 32.771h-108.295c-4.737-5.75-17.103-21.538-25.81-32.771-28.593-38.346-50.759-80.805-62.998-120.028 2.351.275 4.724.432 7.118.432 15.099 0 29.4-5.478 40.523-15.295 11.396 15.975 30.084 25.86 50.039 25.86 17.447 0 33.75-7.315 45.276-19.961 11.526 12.646 27.829 19.961 45.276 19.961 2.011 0 4.038-.099 6.024-.293 4.119-.403 7.132-4.069 6.73-8.188-.403-4.119-4.068-7.13-8.188-6.73-1.504.147-3.041.221-4.566.221-15.812 0-30.384-7.956-38.978-21.283-1.38-2.14-3.752-3.433-6.298-3.433s-4.918 1.293-6.298 3.433c-8.594 13.327-23.165 21.283-38.978 21.283-17.758 0-34.189-10.361-41.861-26.395-1.111-2.321-3.335-3.911-5.89-4.209-2.553-.299-5.086.735-6.702 2.737-8.872 10.995-22.033 17.301-36.109 17.301-3.952 0-7.836-.49-11.594-1.458-.116-.47-2.549-11.416-2.906-13.316-1.011-5.386-1.83-10.818-2.437-16.273 2.289.5 4.642.77 7.043.77 18.175 0 32.961-14.786 32.961-32.961s-14.786-32.961-32.961-32.961c-.406 0-.809.031-1.214.046 1.198-3.54 2.542-7.03 4.058-10.447 1.32-2.974 2.761-5.894 4.319-8.751.455-.835 4.154-8.206 4.831-8.076 88.768 17.005 178.696 16.999 267.469-.019.006.009.012.018.018.027 3.734 5.718 6.972 11.759 9.673 18.032 1.312 3.048 2.48 6.13 3.527 9.237-.405-.015-.809-.049-1.215-.049-18.175 0-32.961 14.786-32.961 32.961s14.786 32.961 32.961 32.961c2.402 0 4.76-.261 7.051-.76-.494 4.457-1.135 8.905-1.911 13.331-.417 2.377-.872 4.745-1.361 7.106z"/></g></g></svg>