<svg height="512" viewBox="0 0 60 60" width="512" xmlns="http://www.w3.org/2000/svg"><g id="Page-1" fill="none" fill-rule="evenodd"><g id="026---Searching-Data" fill="rgb(0,0,0)" fill-rule="nonzero"><path id="Shape" d="m5 50h21v2.142c-1.9503067.503567-3.2219252 2.3787867-2.9681188 4.3770005s1.9538507 3.4959828 3.9681188 3.4959828 3.7143124-1.497769 3.9681188-3.4959828-1.0178121-3.8734335-2.9681188-4.3770005v-2.142h1.792c5.0740174 2.6305912 11.1019097 2.6677821 16.208.1l6.905 8.434c1.415254 1.6491041 3.8882595 1.866592 5.5696234.489819 1.6813639-1.3767729 1.9559334-3.8440931.6183766-5.556819l-6.9-8.432c4.3188203-5.507342 5.0250944-13.0289462 1.807-19.244v-20.791c-.0033061-2.76005315-2.2399468-4.99669388-5-5h-44c-2.76005315.00330612-4.99669388 2.23994685-5 5v40c.00330612 2.7600532 2.23994685 4.9966939 5 5zm24 6c0 1.1045695-.8954305 2-2 2s-2-.8954305-2-2 .8954305-2 2-2 2 .8954305 2 2zm-24-8c-1.65685425 0-3-1.3431458-3-3v-11h18c.0062752 1.0058191.0969265 2.0093387.271 3h-6.271c-.5522847 0-1 .4477153-1 1s.4477153 1 1 1h6.721c.4064202 1.3982775.9823643 2.7415874 1.715 4h-16.436c-.55228475 0-1 .4477153-1 1s.44771525 1 1 1h17.784c.8567585 1.1094885 1.8389494 2.1161755 2.927 3zm-3-30h27.792c-1.5390924.7933287-2.9562339 1.8036483-4.208 3h-11.584c-.5522847 0-1 .4477153-1 1s.4477153 1 1 1h9.784c-.9586909 1.225341-1.7543333 2.5698992-2.367 4h-15.417c-.55228475 0-1 .4477153-1 1s.44771525 1 1 1h14.721c-.2855734.9809649-.486312 1.984658-.6 3h-18.121zm55.547 36.734c.6986156.8545586.5728534 2.1135228-.281 2.813-.8616189.6741088-2.1011692.5507266-2.813-.28l-6.688-8.167c1.1236206-.7266108 2.1632941-1.5754538 3.1-2.531zm-19.547-4.734c-8.836556 0-16-7.163444-16-16s7.163444-16 16-16 16 7.163444 16 16c-.0104696 8.8322157-7.1677843 15.9895304-16 16zm8.208-32h5.792v4.711c-1.5822988-1.9557817-3.554924-3.5602426-5.792-4.711zm-41.208-16h44c1.6568542 0 3 1.34314575 3 3v11h-50v-11c0-1.65685425 1.34314575-3 3-3z"/><path id="Shape" d="m6 7h4c.5522847 0 1-.44771525 1-1s-.4477153-1-1-1h-4c-.55228475 0-1 .44771525-1 1s.44771525 1 1 1z"/><path id="Shape" d="m14 7h34c.5522847 0 1-.44771525 1-1s-.4477153-1-1-1h-34c-.5522847 0-1 .44771525-1 1s.4477153 1 1 1z"/><path id="Shape" d="m6 23h4c.5522847 0 1-.4477153 1-1s-.4477153-1-1-1h-4c-.55228475 0-1 .4477153-1 1s.44771525 1 1 1z"/><path id="Shape" d="m6 39h4c.5522847 0 1-.4477153 1-1s-.4477153-1-1-1h-4c-.55228475 0-1 .4477153-1 1s.44771525 1 1 1z"/><path id="Shape" d="m6 13h42c.5522847 0 1-.4477153 1-1s-.4477153-1-1-1h-42c-.55228475 0-1 .4477153-1 1s.44771525 1 1 1z"/><path id="Shape" d="m38 20c-5.2261163.004997-10.0143611 2.9204357-12.418 7.561-.014.028-.029.054-.041.084-1.7049961 3.3092537-2.0080513 7.1650088-.841 10.7.008.021.014.042.023.062 2.2526291 6.7922689 9.2649241 10.7923995 16.2581237 9.2743701 6.9931996-1.5180295 11.7159028-8.0655023 10.9496666-15.1804258s-6.7747284-12.5067086-13.9307903-12.5009443zm0 2c5.8493057.0101149 10.8404699 4.2331153 11.819 10h-23.638c.1741763-1.0364143.4848788-2.0451888.924-3h17.895c.5522847 0 1-.4477153 1-1s-.4477153-1-1-1h-16.727c2.2481116-3.1356508 5.868723-4.996765 9.727-5zm0 24c-4.6864909-.0073573-8.9404775-2.7405291-10.895-7h17.895c.5522847 0 1-.4477153 1-1s-.4477153-1-1-1h-18.6c-.2601318-.9789677-.3945462-1.9870753-.4-3h24c-.0071648 6.624447-5.375553 11.9928352-12 12z"/></g></g></svg>