<?xml version="1.0" encoding="UTF-8"?>
<svg xmlns="http://www.w3.org/2000/svg" id="Layer_1" data-name="Layer 1" viewBox="0 0 512 512" width="512" height="512"><path d="M446.56,86.22a30.19,30.19,0,0,0,.833-60.373A19.255,19.255,0,0,0,428.475,10h-4.619A19.224,19.224,0,0,0,408,18.374H104A19.224,19.224,0,0,0,88.144,10H83.525A19.255,19.255,0,0,0,64.607,25.847,30.19,30.19,0,0,0,65.44,86.22,19.252,19.252,0,0,0,83.525,98.966h4.619A19.221,19.221,0,0,0,104,90.592h1.347V144.4a6,6,0,0,0,1.529,4l10.442,11.67-9.869,8.433a6,6,0,0,0-2.1,4.561v70.707a6,6,0,0,0,2.1,4.562l10,8.544-10.683,12.641a6,6,0,0,0-1.418,3.873V292.5a6,6,0,0,0,2.1,4.561l10.113,8.643-10.9,13.584a6,6,0,0,0-1.319,3.754v98.364H104a19.225,19.225,0,0,0-15.859-8.373H83.525A19.252,19.252,0,0,0,65.44,425.78a30.19,30.19,0,0,0-.833,60.373A19.255,19.255,0,0,0,83.525,502h4.619A19.224,19.224,0,0,0,104,493.626H408A19.224,19.224,0,0,0,423.856,502h4.619a19.255,19.255,0,0,0,18.918-15.847,30.19,30.19,0,0,0-.833-60.373,19.252,19.252,0,0,0-18.085-12.746h-4.619a19.211,19.211,0,0,0-15.71,8.174l1.445-126.341a6,6,0,0,0-.15-1.4l-3.573-15.7,10.965-20.831a6,6,0,0,0-.041-5.666l-16.96-31.127,7.334-10.317a6,6,0,0,0,1.108-3.586l-2.119-115.65H408a19.27,19.27,0,0,0,11.939,7.97v67.571a17.488,17.488,0,1,0,12,0V98.638A19.275,19.275,0,0,0,446.56,86.22Zm1.15-48.335a18.157,18.157,0,0,1,0,36.277ZM64.29,74.162a18.157,18.157,0,0,1,0-36.277Zm31.089,5.569a7.243,7.243,0,0,1-7.235,7.235H83.525a7.243,7.243,0,0,1-7.235-7.235v-50.5A7.244,7.244,0,0,1,83.525,22h4.619a7.244,7.244,0,0,1,7.235,7.235ZM64.29,474.115a18.157,18.157,0,0,1,0-36.277Zm31.089,8.65A7.244,7.244,0,0,1,88.144,490H83.525a7.244,7.244,0,0,1-7.235-7.235v-50.5a7.243,7.243,0,0,1,7.235-7.235h4.619a7.243,7.243,0,0,1,7.235,7.235ZM447.71,437.838a18.157,18.157,0,0,1,0,36.277Zm-31.089-5.569a7.243,7.243,0,0,1,7.235-7.235h4.619a7.243,7.243,0,0,1,7.235,7.235v50.5A7.244,7.244,0,0,1,428.475,490h-4.619a7.244,7.244,0,0,1-7.235-7.235Zm-12,49.357H398.77v-1.451a6,6,0,1,0-12,0v1.451H107.379V452.234H209.853a6,6,0,0,0,0-12H107.379v-6.827H404.621Zm0-421.86H302.147a6,6,0,1,0,0,12H404.621v6.826H178.508a6,6,0,0,0,0,12H394.153l2.087,113.894-8.361,11.762a6,6,0,0,0-.378,6.347l17.216,31.6-10.5,19.951a6,6,0,0,0-.541,4.127l3.908,17.169-1.441,125.968H117.351V325.152l13.216-16.476a6,6,0,0,0-.783-8.316l-12.433-10.625V275.587l13.118-15.522a6,6,0,0,0-.685-8.434l-12.433-10.625V175.83l12.433-10.625a6,6,0,0,0,.573-8.563l-13.006-14.535V90.592h21.157a6,6,0,0,0,0-12H107.379V30.374h5.851v1.451a6,6,0,1,0,12,0V30.374H404.621Zm21.314,127.989a5.35,5.35,0,1,1,5.487-5.348A5.426,5.426,0,0,1,425.935,187.755Zm2.54-100.789h-4.619a7.243,7.243,0,0,1-7.235-7.235v-50.5A7.244,7.244,0,0,1,423.856,22h4.619a7.244,7.244,0,0,1,7.235,7.235v50.5A7.243,7.243,0,0,1,428.475,86.966Z"/><path d="M267.089,71.766H283.47a6,6,0,0,0,0-12H267.089a6,6,0,1,0,0,12Z"/><path d="M228.53,452.234h16.381a6,6,0,0,0,0-12H228.53a6,6,0,0,0,0,12Z"/><path d="M279.574,153.675h.117a6,6,0,0,0,.114-12l-5.469-.1c-8.557-8.74-17.646-12.922-27.107-12.407-15.483.83-25.4,14.264-25.81,14.835a6,6,0,0,0,.842,7.981,43.007,43.007,0,0,0,6.874,4.981v23.055a6,6,0,0,0,12,0V162.548a20.513,20.513,0,0,0,4.267,11.1,15.97,15.97,0,0,0,11.981,5.607c1.186.05,2.776.07,4.563.07,7.12,0,17.391-.317,17.93-.333A6,6,0,1,0,279.5,167c-.161,0-16.137.5-21.618.268-1.991-.083-2.785-.733-3.255-1.289a7.051,7.051,0,0,1-1.306-3.027c6.792-.608,13.9-3.328,20.694-9.379Zm-31.6-2.723-.009,0-.042,0a27.282,27.282,0,0,1-4.909-1,35.478,35.478,0,0,1-7.571-3.314c2.988-2.512,7.338-5.214,12.433-5.488,4.849-.259,9.869,1.761,14.9,6.024A21.669,21.669,0,0,1,247.97,150.952Z"/><path d="M222.157,133.659c.13-.126,13.189-12.544,28.942-12.041,8.331.253,16.087,4.216,23.051,11.78a6,6,0,0,0,4.414,1.936h8.693a6,6,0,0,0,0-12H281.12c-8.789-8.769-18.755-13.379-29.657-13.71-20.76-.636-36.943,14.731-37.624,15.386a6,6,0,0,0,8.318,8.649Z"/><path d="M157.436,378.181h69.8a6,6,0,1,0,0-12h-28.9V347.908a6,6,0,0,0-12,0v18.273h-22.9V347.908a6,6,0,0,0-12,0v24.273A6,6,0,0,0,157.436,378.181Z"/><path d="M338.237,336.43c-15.491,0-28.093,12.387-28.093,27.614s12.6,27.614,28.093,27.614,28.095-12.387,28.095-27.614S353.729,336.43,338.237,336.43Zm0,43.228a15.621,15.621,0,1,1,16.095-15.614A15.877,15.877,0,0,1,338.237,379.658Z"/><path d="M306.334,264.521a6,6,0,0,0,8.585.6l9.914-8.861,7.726,8.439a6,6,0,0,0,8.312.52l10.8-9.178,8.552,8.79a6,6,0,0,0,8.707-.111l11.841-12.812a6,6,0,1,0-8.813-8.145l-7.546,8.165-8.053-8.277a6,6,0,0,0-8.187-.387L337.5,252.335l-7.823-8.546a6,6,0,0,0-8.424-.422l-9.731,8.7-6.824-8.092a6,6,0,0,0-9.174,7.736Z"/><path d="M160.1,276.014h64.468a6,6,0,0,0,4.2-10.289L196.529,234.19a6,6,0,0,0-8.39,0L155.9,265.725a6,6,0,0,0,4.2,10.289Zm32.234-29.141,17.521,17.141H174.812Z"/><path d="M263.682,230.919a6,6,0,0,0-6,6v156.26a6,6,0,0,0,12,0V236.919A6,6,0,0,0,263.682,230.919Z"/></svg>
