 <svg version="1.0" xmlns="http://www.w3.org/2000/svg" width="700.000000pt" height="699.000000pt" viewBox="0 0 700.000000 699.000000" preserveAspectRatio="xMidYMid meet">
<metadata>
Created by potrace 1.12, written by Peter Selinger 2001-2015
</metadata>
<g transform="translate(0.000000,699.000000) scale(0.100000,-0.100000)" fill="#000000" stroke="none">
<path d="M387 6524 c-4 -4 -7 -144 -7 -311 l0 -303 -25 0 -25 0 0 -115 c0 -94
3 -117 15 -121 10 -4 15 -21 15 -54 0 -27 5 -52 10 -55 7 -4 10 -802 10 -2360
0 -1558 3 -2356 10 -2360 7 -4 10 778 10 2339 0 1289 3 2351 6 2360 5 14 28
16 155 16 l149 0 0 -2355 c0 -1563 3 -2355 10 -2355 7 0 10 792 10 2355 l0
2355 2800 0 2800 0 0 -2354 c0 -1559 3 -2357 10 -2361 7 -4 10 778 10 2339 0
1289 3 2351 6 2360 5 14 28 16 155 16 l149 0 0 -2355 c0 -1563 3 -2355 10
-2355 7 0 10 791 10 2354 0 1737 3 2355 11 2358 6 2 14 27 17 56 2 29 9 55 13
58 5 3 9 56 9 119 0 110 -1 114 -22 117 l-23 3 -5 305 -5 305 -165 0 -165 0
-3 -82 c-2 -66 -6 -82 -19 -85 -9 -2 -214 -2 -455 0 l-438 2 0 85 0 86 -137
-3 -138 -3 -3 -82 -3 -83 -444 0 -445 0 0 54 c0 29 -3 68 -6 85 l-7 32 -131
-3 -131 -3 -3 -82 -3 -83 -449 0 -450 0 0 85 0 86 -132 -3 -133 -3 -3 -82 -3
-83 -449 0 -450 0 0 85 0 85 -135 0 -135 0 0 -85 0 -85 -455 0 -454 0 -3 83
-3 82 -166 3 c-91 1 -168 -1 -172 -4z m323 -319 l0 -296 -152 3 -153 3 -3 293
-2 292 155 0 155 0 0 -295z m1188 3 l-3 -293 -120 0 -120 0 -3 293 -2 292 125
0 125 0 -2 -292z m1170 0 l-3 -293 -117 -3 -118 -3 0 296 0 295 120 0 120 0
-2 -292z m1172 -3 l0 -295 -120 0 -120 0 0 295 0 295 120 0 120 0 0 -295z
m1178 3 l-3 -293 -120 0 -120 0 -3 293 -2 292 125 0 125 0 -2 -292z m1247 -3
l0 -290 -152 -3 -152 -3 -3 218 c-2 120 -2 253 0 296 l4 78 151 -3 152 -3 0
-290z m-5030 -80 l0 -210 -452 -3 -453 -2 0 215 0 215 453 -2 452 -3 0 -210z
m1175 0 l0 -215 -444 0 c-396 0 -445 2 -450 16 -8 21 -8 399 1 407 3 4 206 7
450 7 l443 0 0 -215z m1165 0 l0 -210 -445 0 -445 0 -3 200 c-1 110 0 205 3
212 3 11 93 13 447 11 l443 -3 0 -210z m1175 0 l0 -215 -445 0 -445 0 0 215 0
215 445 0 445 0 0 -215z m1190 0 l0 -215 -455 0 -455 0 0 208 c0 115 3 212 7
215 3 4 208 7 455 7 l448 0 0 -215z m358 -234 c21 -1 22 -4 22 -96 l0 -95
-3185 0 -3185 0 0 93 c0 52 2 96 4 98 3 3 6222 3 6344 0z m-8 -266 l0 -45
-3155 0 -3155 0 0 45 0 45 3155 0 3155 0 0 -45z"></path>
<path d="M1105 5149 c-73 -25 -122 -70 -167 -153 l-33 -61 -3 -522 -3 -523
2561 0 2560 0 0 481 c0 466 -1 483 -22 557 -20 69 -29 84 -83 138 -50 50 -70
63 -121 77 -155 43 -322 2 -399 -99 -73 -94 -69 -70 -75 -579 l-5 -460 -195 0
-195 0 -5 450 c-5 443 -5 451 -28 505 -38 89 -86 146 -150 177 -52 26 -66 28
-172 28 -104 0 -120 -3 -173 -27 -69 -32 -110 -74 -146 -148 l-26 -55 -5 -465
-5 -465 -197 -3 -198 -2 0 406 c0 255 -4 432 -11 473 -24 140 -102 240 -213
275 -46 15 -79 18 -155 14 -133 -7 -195 -37 -255 -122 -24 -34 -50 -79 -57
-101 -9 -29 -14 -160 -18 -490 l-6 -450 -200 0 -200 0 -5 460 -5 460 -26 55
c-60 126 -147 181 -295 188 -148 7 -246 -34 -312 -130 -54 -80 -56 -96 -62
-583 l-5 -450 -195 0 -195 0 -5 445 c-6 470 -9 496 -56 571 -65 104 -135 141
-279 146 -82 3 -111 0 -160 -18z m255 -4 c74 -26 103 -45 143 -96 77 -98 77
-101 77 -608 l0 -450 178 -3 c97 -2 195 -1 217 2 l40 5 5 470 c5 461 5 471 27
518 55 117 176 184 318 174 95 -6 138 -19 189 -58 53 -41 84 -84 110 -153 18
-47 20 -87 25 -505 l6 -454 208 1 c115 1 213 4 218 7 5 4 9 192 9 455 0 442 0
450 23 507 15 39 40 76 77 113 46 46 66 59 117 73 165 45 322 -3 397 -122 53
-84 56 -114 56 -590 l0 -441 214 0 215 0 3 463 c3 457 3 463 26 517 13 30 42
74 64 96 100 103 291 124 433 48 39 -21 93 -90 119 -151 20 -46 21 -72 26
-513 3 -256 8 -464 13 -462 4 1 99 2 212 2 l205 0 0 449 c0 289 4 452 10 456
6 3 10 16 10 27 0 28 46 105 85 143 56 55 120 75 237 75 87 0 111 -4 153 -24
58 -27 118 -89 149 -155 20 -45 21 -60 24 -543 l3 -498 -2546 0 -2545 0 0 474
c0 446 1 477 20 536 11 34 29 77 39 94 35 57 117 116 159 116 12 0 24 5 27 10
10 15 155 12 205 -5z"></path>
<path d="M1115 5051 c-76 -34 -120 -113 -113 -204 l3 -42 225 -3 c124 -1 235
0 248 3 18 4 22 12 22 43 0 44 -27 117 -56 154 -11 14 -41 35 -66 47 -63 28
-204 29 -263 2z m220 -1 c3 -5 15 -10 25 -10 52 0 119 -100 120 -177 l0 -43
-231 0 -231 0 4 63 c3 54 9 70 37 106 21 26 45 44 62 48 16 3 32 10 35 14 7
12 171 11 179 -1z"></path>
<path d="M2225 5056 c-22 -9 -52 -29 -67 -45 -32 -36 -61 -126 -55 -173 l3
-33 225 -3 c123 -1 235 0 248 3 22 6 23 9 18 65 -7 79 -39 134 -102 174 -40
26 -211 33 -270 12z m210 -6 c3 -5 15 -10 25 -10 49 0 115 -92 127 -175 l6
-45 -237 0 -236 0 0 38 c0 92 43 160 115 186 47 16 191 21 200 6z"></path>
<path d="M3356 5063 c-11 -3 -37 -17 -58 -31 -53 -35 -80 -95 -76 -170 l3 -57
240 0 240 0 -1 65 c-1 80 -23 123 -85 165 -41 28 -51 30 -144 32 -55 1 -109
-1 -119 -4z m226 -27 c52 -23 98 -70 98 -100 0 -8 5 -18 10 -21 6 -3 10 -26
10 -51 l0 -44 -235 0 -235 0 0 44 c0 80 44 147 120 179 57 25 170 21 232 -7z"></path>
<path d="M4459 5061 c-37 -12 -72 -32 -87 -50 -27 -33 -51 -101 -53 -152 l-3
-54 249 0 250 0 3 38 c8 92 -61 193 -147 217 -42 11 -174 12 -212 1z m212 -17
c74 -24 121 -86 127 -165 l4 -59 -232 0 -232 0 4 64 c3 51 10 71 32 100 15 21
40 42 55 48 14 5 33 14 41 18 26 15 149 11 201 -6z"></path>
<path d="M5532 5034 c-72 -35 -101 -83 -109 -175 l-6 -69 249 2 249 3 -1 57
c-3 136 -88 207 -249 207 -66 0 -89 -4 -133 -25z m291 -27 c51 -39 79 -96 75
-155 l-3 -47 -224 0 c-258 0 -255 -1 -233 82 17 62 47 106 92 133 31 18 48 20
146 18 104 -3 113 -5 147 -31z"></path>
<path d="M995 4718 c-3 -13 -4 -183 -3 -378 l3 -355 253 -3 252 -2 0 380 0
380 -250 0 -250 0 -5 -22z m485 -248 l0 -250 -235 0 -235 0 0 250 0 250 235 0
235 0 0 -250z m-2 -372 l-3 -103 -232 -3 -233 -2 0 105 0 105 235 0 236 0 -3
-102z"></path>
<path d="M2090 4360 l0 -380 255 0 255 0 0 380 0 380 -255 0 -255 0 0 -380z
m490 110 l0 -250 -232 2 -233 3 -3 235 c-1 129 0 240 2 247 4 10 59 13 236 13
l230 0 0 -250z m0 -375 l0 -105 -232 2 -233 3 -3 103 -3 102 236 0 235 0 0
-105z"></path>
<path d="M3210 4360 l0 -380 250 0 250 0 0 380 0 380 -250 0 -250 0 0 -380z
m490 110 l0 -250 -237 2 -238 3 -3 235 c-1 129 0 240 2 247 4 10 60 13 241 13
l235 0 0 -250z m-2 -372 l-3 -103 -235 0 -235 0 -3 103 -3 102 241 0 241 0 -3
-102z"></path>
<path d="M4310 4360 l0 -380 253 2 252 3 0 375 0 375 -252 3 -253 2 0 -380z
m490 110 l0 -250 -235 0 -235 0 0 250 0 250 235 0 235 0 0 -250z m-2 -372 l-3
-103 -232 -3 -233 -2 0 105 0 105 235 0 236 0 -3 -102z"></path>
<path d="M5422 4343 l3 -378 225 -3 c124 -1 235 0 248 3 l22 5 0 375 0 375
-250 0 -250 0 2 -377z m478 117 l0 -250 -235 0 -235 0 0 250 0 250 235 0 235
0 0 -250z m-2 -372 l-3 -103 -232 -3 -233 -2 0 105 0 105 235 0 236 0 -3 -102z"></path>
<path d="M2866 3020 c-46 -17 -70 -53 -55 -82 5 -10 27 -27 48 -38 22 -11 41
-29 45 -42 3 -13 6 -115 6 -226 0 -228 -5 -252 -67 -299 -30 -23 -44 -26 -117
-27 -72 -1 -87 2 -119 24 -81 55 -95 121 -80 390 l8 145 43 23 c36 20 42 28
42 55 0 45 -9 55 -66 72 -59 18 -288 21 -349 4 -86 -24 -97 -68 -35 -135 l40
-44 -1 -238 c-1 -237 -1 -239 24 -289 31 -60 74 -113 92 -113 7 0 18 -6 25
-14 20 -25 141 -65 225 -76 90 -11 229 1 276 25 15 8 37 16 47 18 11 2 46 22
78 46 105 76 123 148 124 472 0 190 1 196 23 216 12 11 32 26 45 32 18 10 22
19 20 44 -4 47 -48 64 -177 68 -75 3 -115 0 -145 -11z"></path>
<path d="M3540 3030 c-111 -24 -214 -103 -256 -197 -33 -75 -31 -123 9 -203
45 -90 134 -157 270 -201 110 -37 153 -71 138 -112 -13 -36 -49 -48 -126 -44
-88 5 -139 34 -190 111 -19 30 -42 60 -50 66 -22 18 -67 15 -82 -6 -37 -51 15
-241 75 -273 90 -48 266 -76 385 -61 148 19 289 110 324 210 17 46 16 155 0
203 -16 45 -84 111 -141 137 -23 10 -79 30 -126 44 -108 32 -160 66 -160 105
0 53 67 84 134 61 20 -6 70 -40 113 -76 79 -66 100 -73 145 -52 48 23 46 121
-5 195 -41 62 -67 77 -124 70 -26 -3 -66 1 -91 8 -60 19 -187 26 -242 15z"></path>
<path d="M4796 3033 c-4 -5 -153 -10 -332 -13 -315 -5 -324 -6 -345 -27 -27
-26 -19 -70 14 -82 68 -26 87 -99 87 -337 0 -234 -10 -282 -67 -342 -33 -34
-42 -50 -37 -66 13 -44 20 -45 418 -47 l379 -2 19 26 c34 47 68 148 68 202 0
57 -19 85 -59 85 -24 0 -71 -41 -71 -62 0 -8 -14 -30 -30 -50 -22 -27 -45 -41
-84 -52 -98 -29 -225 -17 -241 22 -4 9 -9 56 -12 103 -7 108 2 129 57 129 47
0 67 -18 82 -76 13 -48 35 -62 68 -44 70 38 80 317 13 370 -40 31 -77 9 -87
-52 -9 -58 -21 -68 -77 -68 -64 0 -73 16 -67 127 6 114 11 118 136 118 81 -1
104 -5 140 -23 24 -13 46 -31 49 -40 12 -34 36 -52 69 -52 43 0 64 30 64 90 0
105 -42 170 -108 170 -21 0 -42 -3 -46 -7z"></path>
<path d="M1006 3014 c-55 -20 -67 -33 -64 -68 2 -22 13 -37 38 -54 19 -13 39
-31 45 -40 23 -42 12 -516 -14 -585 -6 -14 -24 -33 -41 -44 -25 -14 -30 -23
-28 -48 4 -44 52 -65 148 -65 92 0 139 13 170 45 22 23 22 26 7 49 -9 13 -25
27 -36 31 -11 3 -23 16 -27 28 -12 37 -6 260 7 268 27 16 40 -1 92 -121 9 -19
27 -61 41 -93 14 -32 26 -60 26 -62 0 -3 14 -28 31 -55 45 -74 63 -67 120 45
25 50 53 111 62 136 10 25 31 67 47 92 58 91 88 46 74 -112 -7 -84 -13 -99
-49 -135 -34 -34 -31 -60 8 -88 30 -22 41 -23 192 -23 151 0 162 1 193 23 43
31 43 66 -2 107 -44 40 -50 82 -50 345 0 217 8 261 54 305 29 28 39 66 22 91
-19 30 -73 44 -167 44 -99 0 -148 -12 -175 -45 -8 -10 -51 -88 -96 -174 -69
-133 -84 -156 -105 -159 -30 -4 -36 3 -81 88 -167 315 -142 290 -291 289 -70
0 -126 -6 -151 -15z"></path>
<path d="M5110 3018 c-80 -23 -93 -75 -32 -132 l37 -35 2 -221 c3 -289 23
-365 117 -429 184 -127 484 -127 653 -1 103 77 123 152 123 467 0 94 4 183 10
198 5 14 26 35 45 47 31 18 36 25 33 52 -2 25 -11 34 -42 49 -33 16 -59 18
-162 15 -106 -3 -126 -6 -151 -24 -42 -32 -37 -62 16 -94 30 -17 48 -36 54
-55 5 -17 9 -115 10 -220 2 -218 -5 -249 -66 -299 -36 -29 -44 -31 -122 -31
-78 0 -86 2 -122 31 -70 56 -78 85 -77 285 2 231 4 244 54 269 34 17 40 25 40
53 0 45 -10 56 -65 72 -56 17 -299 19 -355 3z"></path>
<path d="M4726 1827 c-38 -30 -28 -54 14 -32 22 11 35 12 60 4 43 -15 51 -2
17 27 -35 30 -54 30 -91 1z"></path>
<path d="M1073 1830 c-76 -18 -103 -55 -103 -140 0 -62 35 -106 95 -120 54
-13 132 6 153 38 19 30 4 49 -26 33 -34 -18 -79 -13 -101 11 -30 31 -37 82
-17 113 22 34 42 31 81 -11 37 -40 68 -43 73 -5 7 50 -5 68 -51 74 -24 3 -49
8 -57 10 -8 3 -30 1 -47 -3z"></path>
<path d="M2692 1831 c-102 -26 -136 -157 -59 -227 42 -39 100 -51 154 -33 43
15 63 34 63 62 0 14 -4 17 -17 12 -10 -5 -37 -10 -60 -11 -37 -3 -45 0 -62 25
-25 35 -27 93 -5 115 21 22 27 21 70 -19 43 -39 56 -42 74 -20 9 11 10 25 4
47 -8 26 -17 34 -44 41 -60 14 -84 16 -118 8z"></path>
<path d="M4480 1829 c-19 -5 -50 -26 -67 -46 -27 -29 -33 -45 -33 -81 0 -102
92 -162 200 -129 33 10 47 21 54 40 12 33 4 42 -22 28 -12 -6 -36 -11 -56 -11
-43 0 -76 40 -76 93 0 71 51 83 101 24 40 -46 84 -18 63 41 -7 21 -20 28 -64
38 -63 15 -55 15 -100 3z"></path>
<path d="M2153 1820 c-24 -10 -30 -25 -13 -35 6 -3 10 -12 10 -19 0 -9 -14
-13 -44 -12 -49 1 -77 -17 -96 -65 -26 -62 41 -143 102 -123 13 4 48 8 78 8
53 1 55 2 52 26 -2 14 -4 66 -6 115 -1 50 -4 96 -4 103 -2 14 -46 15 -79 2z
m-8 -156 c0 -42 -3 -49 -20 -49 -30 0 -43 47 -21 80 25 38 41 26 41 -31z"></path>
<path d="M3253 1823 c-24 -4 -31 -27 -13 -38 6 -3 10 -12 10 -19 0 -9 -14 -13
-45 -12 -35 1 -50 -4 -70 -25 -56 -55 -21 -164 52 -161 15 1 56 1 91 1 50 0
63 3 69 17 4 10 2 19 -5 22 -8 2 -12 38 -12 113 l0 109 -27 -1 c-16 -1 -38 -4
-50 -6z m-8 -159 c0 -42 -3 -49 -20 -49 -16 0 -21 8 -23 44 -2 28 1 47 10 52
24 16 33 3 33 -47z"></path>
<path d="M3595 1816 c-16 -12 -17 -16 -6 -30 7 -9 24 -16 37 -16 27 0 68 35
59 50 -9 15 -68 12 -90 -4z"></path>
<path d="M4138 1756 c-51 -22 -78 -56 -78 -101 0 -28 6 -46 20 -58 27 -23 88
-48 95 -38 2 5 18 11 34 14 28 6 46 30 36 48 -3 4 -17 3 -30 -3 -19 -8 -31 -8
-50 0 -39 18 -30 30 29 37 58 8 68 17 56 50 -15 41 -73 67 -112 51z m36 -45
c3 -5 0 -11 -8 -14 -15 -6 -26 1 -26 15 0 11 27 10 34 -1z"></path>
<path d="M1301 1743 c-40 -21 -50 -40 -26 -49 10 -4 25 2 40 16 25 24 45 20
45 -10 0 -20 -19 -30 -55 -30 -26 0 -55 -33 -55 -62 0 -10 11 -25 26 -34 20
-14 32 -15 58 -7 20 6 40 7 49 1 21 -11 64 0 71 19 3 8 1 23 -4 33 -6 10 -10
39 -10 63 0 25 -6 49 -13 55 -26 22 -90 24 -126 5z m57 -120 c-4 -22 -22 -20
-26 1 -2 10 3 16 13 16 10 0 15 -7 13 -17z"></path>
<path d="M1523 1749 c-47 -18 -38 -94 13 -118 13 -6 24 -15 24 -21 0 -16 -27
-12 -45 6 -12 13 -19 14 -28 5 -35 -35 75 -75 131 -49 49 24 42 85 -13 111
-36 17 -47 37 -21 37 8 0 18 -4 21 -10 3 -5 15 -10 26 -10 22 0 27 34 7 46
-18 12 -89 13 -115 3z"></path>
<path d="M1733 1749 c-39 -12 -61 -44 -36 -53 10 -4 25 2 40 16 17 15 26 19
34 11 22 -22 5 -47 -34 -54 -21 -3 -42 -10 -46 -15 -39 -41 -3 -102 53 -89 38
9 55 9 82 0 13 -4 28 1 45 14 22 19 23 22 7 31 -14 8 -18 24 -18 64 0 34 -5
58 -14 65 -20 17 -75 22 -113 10z m47 -129 c0 -21 -15 -27 -25 -10 -7 12 2 30
16 30 5 0 9 -9 9 -20z"></path>
<path d="M2333 1753 c-34 -7 -63 -50 -63 -93 0 -75 70 -117 143 -86 19 8 38
19 41 25 13 21 -4 29 -34 18 -22 -8 -35 -9 -48 -1 -32 20 -20 39 26 40 77 3
91 22 50 68 -23 25 -73 38 -115 29z m61 -54 c-3 -5 -14 -9 -25 -9 -21 0 -26
26 -6 33 15 5 39 -12 31 -24z"></path>
<path d="M2940 1753 c-33 -7 -50 -21 -50 -44 0 -26 28 -24 57 2 20 20 23 20
29 5 11 -30 -4 -49 -35 -43 -23 5 -32 1 -51 -25 -18 -25 -20 -34 -11 -54 13
-28 47 -39 84 -25 19 7 34 7 52 -1 19 -9 29 -8 50 6 26 17 31 31 15 41 -5 3
-10 28 -10 54 0 34 -5 53 -19 65 -20 18 -71 27 -111 19z m40 -133 c0 -11 -4
-20 -9 -20 -14 0 -23 18 -16 30 10 17 25 11 25 -10z"></path>
<path d="M3434 1751 c-32 -14 -64 -60 -64 -93 0 -81 108 -126 172 -70 25 22
12 33 -31 26 -27 -4 -40 -2 -51 10 -19 24 -3 34 55 38 59 4 68 22 33 62 -25
29 -79 42 -114 27z m52 -32 c10 -17 -13 -36 -27 -22 -12 12 -4 33 11 33 5 0
12 -5 16 -11z"></path>
<path d="M3637 1750 c-49 -9 -65 -24 -47 -45 15 -18 16 -91 1 -109 -16 -20 -3
-26 55 -26 54 0 75 13 55 33 -6 6 -11 41 -11 78 0 37 -3 70 -7 72 -5 2 -25 0
-46 -3z"></path>
<path d="M3794 1753 c-32 -6 -61 -40 -46 -55 9 -9 19 -7 41 10 25 18 31 19 41
7 18 -21 -4 -45 -41 -45 -30 0 -59 -31 -59 -62 0 -10 12 -25 26 -35 21 -14 31
-15 56 -5 21 8 36 8 53 0 16 -7 29 -7 43 1 19 10 21 18 16 79 -8 96 -41 123
-130 105z m42 -124 c10 -17 -13 -36 -27 -22 -12 12 -4 33 11 33 5 0 12 -5 16
-11z"></path>
<path d="M4734 1753 c-27 -5 -58 -38 -49 -52 9 -16 19 -14 45 9 22 19 25 19
39 5 15 -15 14 -18 -3 -31 -11 -8 -29 -14 -41 -14 -25 0 -65 -39 -65 -63 0
-27 56 -50 91 -38 21 7 37 7 53 0 17 -8 29 -8 45 0 22 12 22 16 5 128 -8 52
-48 70 -120 56z m44 -130 c-5 -25 -28 -28 -28 -4 0 12 6 21 16 21 9 0 14 -7
12 -17z"></path>
<path d="M4952 1750 c-44 -10 -60 -26 -44 -42 17 -17 15 -93 -3 -108 -28 -23
-15 -31 42 -28 l56 3 1 60 c1 50 4 60 20 63 17 4 18 -1 14 -62 l-6 -66 54 0
54 0 -6 55 c-5 37 -3 59 6 70 21 26 31 5 29 -58 -2 -54 0 -61 19 -68 12 -5 35
-6 51 -3 l28 6 -4 71 c-6 91 -7 95 -39 107 -19 8 -34 6 -59 -6 -31 -14 -35
-14 -58 1 -23 15 -28 15 -62 0 -32 -13 -40 -13 -49 -2 -8 10 -21 12 -44 7z"></path>
<path d="M5354 1754 c-28 -6 -58 -39 -49 -53 9 -16 23 -13 42 9 22 26 40 25
48 -1 8 -25 -8 -39 -47 -39 -36 0 -72 -44 -58 -71 17 -30 47 -42 81 -30 21 7
37 7 54 -1 32 -14 81 14 69 40 -4 9 -9 38 -12 64 -2 28 -11 53 -22 63 -19 17
-71 26 -106 19z m44 -131 c-2 -10 -10 -18 -18 -18 -8 0 -16 8 -18 18 -2 12 3
17 18 17 15 0 20 -5 18 -17z"></path>
<path d="M5568 1753 c-39 -6 -51 -25 -37 -56 9 -20 9 -37 0 -73 -7 -25 -11
-48 -9 -49 4 -4 64 -7 101 -6 30 1 36 21 12 41 -17 14 -20 66 -5 75 6 4 17 2
25 -5 22 -18 55 5 55 39 0 35 -24 47 -55 27 -20 -13 -25 -13 -35 -1 -7 8 -15
14 -19 14 -3 -1 -18 -4 -33 -6z"></path>
<path d="M5794 1754 c-33 -7 -60 -42 -46 -56 9 -9 19 -7 42 11 33 24 50 21 50
-9 0 -20 -19 -30 -55 -30 -26 0 -55 -33 -55 -62 0 -10 11 -25 26 -34 20 -14
32 -15 58 -7 20 6 40 7 47 2 21 -13 35 -11 60 10 19 16 22 22 12 32 -7 7 -13
34 -13 59 0 33 -6 52 -19 64 -20 18 -71 27 -107 20z m46 -134 c0 -23 -25 -27
-33 -6 -7 16 1 26 20 26 7 0 13 -9 13 -20z"></path>
</g>
</svg>